<svg xmlns="http://www.w3.org/2000/svg" xmlns:xlink="http://www.w3.org/1999/xlink" style="isolation:isolate" viewBox="0 0 20 20" version="1.1" shape-rendering="crispEdges"><path d="M3 20v-3h1v-1h4v-2H6v-1H5v-1H4v-1H3V9H2V7h1V4h1V3h1V2h10v1h1v1h1v3h1v2h-1v2h-1v1h-1v1h-1v1h-2v2h4v1h1v3H3z" fill="#FFDBAC"/><path d="M14 14v-1h1v-1h1v-1h1V9h1V7h-1V4h-1V3h-1V2H5v1H4v1H3v3H2v2h1v2h1v1h1v1h1v1h8z" fill="#FFF" fill-opacity=".1"/><path d="M5 7h3v2H5V7zm7 0h3v2h-3V7z" fill="#FFF"/><path d="M5 8h2v1H5V8zm7 0h2v1h-2V8z" fill="#588387"/><path d="M4 7V5h3v1H5v1H4zm12-2v2h-1V6h-2V5h3z" fill-rule="evenodd" fill="#7d6450"/><path d="M11 11v1H9v1H8v-1h1v-1h2z" fill="#de0f0d"/><path d="M5 16h1v2h1v1h1v1H5v-4zm9 0h1v4h-3v-1h1v-1h1v-2z" fill-rule="evenodd" fill="#ae0001"/><path d="M2 13h3v-1H4v-1H3V9H2v4zm13 0h3V9h-1v2h-1v1h-1v1zm2-6h1V3h-1V2h-1V1H4v1H3v1H2v4h1V5h1V4h1V3h1V2h8v1h1v1h1v1h1v2z" fill-rule="evenodd" fill="#977961"/></svg>