<svg xmlns="http://www.w3.org/2000/svg" xmlns:xlink="http://www.w3.org/1999/xlink" style="isolation:isolate" viewBox="0 0 20 20" version="1.1" shape-rendering="crispEdges"><path d="M3 20v-3h1v-1h4v-2H6v-1H5v-1H4v-1H3V9H2V7h1V4h1V3h1V2h10v1h1v1h1v3h1v2h-1v2h-1v1h-1v1h-1v1h-2v2h4v1h1v3H3z" fill="#FFDBAC"/><path d="M14 14v-1h1v-1h1v-1h1V9h1V7h-1V4h-1V3h-1V2H5v1H4v1H3v3H2v2h1v2h1v1h1v1h1v1h8z" fill="#FFF" fill-opacity=".1"/><path d="M5 7h3v2H5V7zm7 0h3v2h-3V7z" fill="#FFF"/><path d="M5 8h2v1H5V8zm7 0h2v1h-2V8z" fill="#76778b"/><path d="M4 7V6h1V5h1v1H5v1H4zm10-2h1v1h1v1h-1V6h-1V5z" fill-rule="evenodd" fill="#8c7058"/><path d="M8 12v1h1v1h2v-1h1v-1h-1v-1H9v1H8z" fill="#dbac98"/><path d="M9 12v1h2v-1H9z" fill="#FFF" fill-opacity=".2"/><path d="M3 20v-3h1v-1h5v1h2v-1h5v1h1v3H3z" fill="#88d8b0"/><path d="M3 20v-2h1v1h3v1H3zm14 0v-2h-1v1h-3v1h4z" fill-rule="evenodd" fill="#FFF" fill-opacity=".4"/><path d="M7 16H4v1H3v1h1v1h3v1h6v-1h3v-1h1v-1h-1v-1h-3v1H7v-1z" fill="#FFF" fill-opacity=".2"/><path d="M3 4v3h1V4h2v1h1V4h1v1h1V4h7v3h1V4h1V2h-1V1h-2v1H5V1H3v1H2v2h1z" fill="#a7856a"/></svg>