<svg id="Icon_Games_Gaming" data-name="Icon — Games / Gaming" xmlns="http://www.w3.org/2000/svg" width="31" height="31" viewBox="0 0 31 31">
  <rect id="Rectangle_1036" data-name="Rectangle 1036" width="31" height="31" transform="translate(0)" fill="none"/>
  <path id="Path_4084" data-name="Path 4084" d="M-879.437,11.045A36.662,36.662,0,0,1-868.471,12.9l1.274,9.721a3.747,3.747,0,0,1-.759,2.775,3.71,3.71,0,0,1-2.48,1.437,3.68,3.68,0,0,1-.46.03,3.719,3.719,0,0,1-3.566-2.9l-.242-.984h-9.469l-.24.985a3.712,3.712,0,0,1-3.565,2.9,3.7,3.7,0,0,1-.461-.03,3.71,3.71,0,0,1-2.479-1.437,3.746,3.746,0,0,1-.76-2.771L-890.4,12.9a36.528,36.528,0,0,1,10.966-1.856m0-1.292a37.541,37.541,0,0,0-11.586,2l-.575.212-.061.574-1.3,9.923a5.075,5.075,0,0,0,4.356,5.656,4.892,4.892,0,0,0,.625.041,5.021,5.021,0,0,0,4.82-3.882h7.441a5.025,5.025,0,0,0,4.82,3.882,4.881,4.881,0,0,0,.625-.041,5.075,5.075,0,0,0,4.356-5.656l-1.3-9.923-.061-.574-.575-.212a37.541,37.541,0,0,0-11.586-2Z" transform="translate(894.937 -3.454)" fill="#333"/>
  <circle id="Ellipse_204" data-name="Ellipse 204" cx="1" cy="1" r="1" transform="translate(20 11)" fill="#333"/>
  <circle id="Ellipse_205" data-name="Ellipse 205" cx="1" cy="1" r="1" transform="translate(18 13)" fill="#333"/>
  <circle id="Ellipse_206" data-name="Ellipse 206" cx="1" cy="1" r="1" transform="translate(22 13)" fill="#333"/>
  <circle id="Ellipse_207" data-name="Ellipse 207" cx="1" cy="1" r="1" transform="translate(20 15)" fill="#333"/>
  <path id="Path_4085" data-name="Path 4085" d="M-880.833,21.792h-4.521a.646.646,0,0,1-.646-.646.646.646,0,0,1,.646-.646h4.521a.646.646,0,0,1,.646.646A.646.646,0,0,1-880.833,21.792Z" transform="translate(892.458 -7.26)" fill="#333"/>
  <path id="Path_4086" data-name="Path 4086" d="M-881.854,22.813a.646.646,0,0,1-.646-.646V17.646a.646.646,0,0,1,.646-.646.646.646,0,0,1,.646.646v4.521A.646.646,0,0,1-881.854,22.813Z" transform="translate(891.219 -6.021)" fill="#333"/>
</svg>
